<svg aria-hidden="true" style="position: absolute; width: 0; height: 0; overflow: hidden;" version="1.1" xmlns="http://www.w3.org/2000/svg" xmlns:xlink="http://www.w3.org/1999/xlink">
<defs>
<symbol id="icon-Arrow" viewBox="0 0 23 32">
<path fill="#fff" style="fill: var(--color1, #fff)" d="M-0.009 31.991l16.178-15.995-16.178-16.005h7.311l16.178 16.005-16.178 15.995h-7.311z"></path>
</symbol>
<symbol id="icon-Ellipse" viewBox="0 0 32 32">
<path fill="#fff" style="fill: var(--color1, #fff)" d="M16 32c-8.837 0-16-7.163-16-16s7.163-16 16-16c8.837 0 16 7.163 16 16v0c-0.008 8.833-7.167 15.992-15.999 16h-0.001zM16 1.465c-0.001 0-0.003 0-0.005 0-8.028 0-14.535 6.508-14.535 14.535s6.508 14.535 14.535 14.535c8.028 0 14.535-6.508 14.535-14.535v0c-0.008-8.023-6.508-14.524-14.529-14.535h-0.001zM9.53 26.474l6.262-10.535-6.262-10.203 17.954 10.375z"></path>
</symbol>
</defs>
</svg>
