<svg aria-hidden="true" style="position: absolute; width: 0; height: 0; overflow: hidden;" version="1.1" xmlns="http://www.w3.org/2000/svg" xmlns:xlink="http://www.w3.org/1999/xlink">
<defs>
<symbol id="icon-Shape-3" viewBox="0 0 34 32">
<path fill="#fff" style="fill: var(--color1, #fff)" d="M16.353 11.28c-1.108 1.211-2.66 1.999-4.397 2.106l-0.018 0.001c-0.345 0.020-0.617 0.304-0.619 0.652v3.269c0.008 2.247 1.071 4.245 2.719 5.524l0.016 0.012 2.385 1.823c0.11 0.083 0.25 0.134 0.401 0.134s0.29-0.050 0.402-0.135l-0.002 0.001 2.382-1.821c1.665-1.291 2.729-3.288 2.738-5.534v-3.273c-0-0.348-0.273-0.633-0.617-0.652l-0.002-0c-1.755-0.108-3.307-0.896-4.411-2.102l-0.004-0.005c-0.121-0.132-0.294-0.215-0.487-0.215s-0.366 0.083-0.486 0.215l-0 0.001zM18.659 13.897c0.692 0.351 1.496 0.608 2.344 0.729l0.041 0.005v2.684c-0.007 1.824-0.87 3.445-2.208 4.482l-0.013 0.010-1.984 1.515-1.987-1.517c-1.351-1.048-2.213-2.67-2.219-4.493v-2.681c1.639-0.233 3.079-0.945 4.211-1.987l-0.005 0.005c0.526 0.483 1.124 0.899 1.775 1.228l0.045 0.021zM15.717 17.401c-0.11-0.084-0.249-0.135-0.4-0.135-0.212 0-0.4 0.099-0.521 0.254l-0.001 0.001c-0.085 0.109-0.136 0.248-0.136 0.398 0 0.211 0.1 0.398 0.256 0.517l0.002 0.001 1.42 1.085c0.11 0.085 0.249 0.136 0.401 0.136h0c0.029 0 0.059-0.002 0.089-0.004 0.179-0.025 0.333-0.12 0.436-0.255l0.001-0.002 1.622-2.144c0.083-0.108 0.132-0.245 0.132-0.393 0-0.213-0.102-0.401-0.26-0.52l-0.002-0.001c-0.109-0.082-0.246-0.132-0.395-0.132-0.214 0-0.404 0.102-0.524 0.259l-0.001 0.002-1.223 1.616zM32.694 13.835c0.093 0.053 0.204 0.084 0.323 0.084v0c0.122-0 0.236-0.033 0.335-0.090l-0.003 0.002c0.196-0.116 0.325-0.326 0.326-0.566v-3.534c-0-0.244-0.133-0.456-0.331-0.569l-0.003-0.002-16.179-9.078c-0.093-0.053-0.204-0.084-0.323-0.084s-0.23 0.031-0.326 0.086l0.003-0.002-16.179 9.078c-0.201 0.114-0.335 0.327-0.335 0.57v3.534c0.001 0.24 0.13 0.45 0.323 0.564l0.003 0.002c0.095 0.056 0.209 0.089 0.331 0.089 0.119 0 0.23-0.031 0.327-0.086l-0.003 0.002 2.116-1.186v14.96h-2.438c-0.001 0-0.001 0-0.002 0-0.362 0-0.655 0.293-0.656 0.654v3.080c0.001 0.362 0.294 0.654 0.656 0.654 0.001 0 0.001 0 0.002 0h13.219c0.361 0 0.654-0.293 0.654-0.654s-0.293-0.654-0.654-0.654h-12.562v-1.771h31.042v1.771h-12.562c-0.361 0-0.654 0.293-0.654 0.654s0.293 0.654 0.654 0.654h13.219c0.001 0 0.001 0 0.002 0 0.362 0 0.655-0.293 0.656-0.654v-3.080c-0.001-0.362-0.294-0.654-0.656-0.654-0.001 0-0.001 0-0.002 0h-2.439v-14.963zM1.318 10.111l15.521-8.708 15.521 8.708v2.034l-15.198-8.527c-0.093-0.053-0.204-0.084-0.323-0.084s-0.23 0.031-0.326 0.086l0.003-0.002-15.199 8.527v-2.034zM29.264 27.609h-24.85v-15.699l12.425-6.973 12.425 6.973v15.699zM16.839 30.689c0.36 0.002 0.651 0.294 0.651 0.654 0 0.361-0.293 0.654-0.654 0.654s-0.654-0.293-0.654-0.654v0c0.001-0.362 0.294-0.654 0.656-0.654 0.001 0 0.001 0 0.002 0h-0z"></path>
</symbol>
<symbol id="icon-Shape-2" viewBox="0 0 31 32">
<path fill="#fff" style="fill: var(--color1, #fff)" d="M14.996 2.657c0.347-0.001 0.628-0.282 0.628-0.629v-1.401c-0.006-0.342-0.285-0.617-0.628-0.617s-0.622 0.275-0.628 0.617v1.402c0 0.347 0.281 0.628 0.628 0.629h0zM30.067 12.965h-1.402c-0.347 0-0.628 0.281-0.628 0.628s0.281 0.628 0.628 0.628v0h1.402c0.347 0 0.628-0.281 0.628-0.628s-0.281-0.628-0.628-0.628v0zM2.657 13.594c0-0 0-0.001 0-0.001 0-0.347-0.281-0.628-0.628-0.628h-1.402c-0.347 0-0.628 0.281-0.628 0.628s0.281 0.628 0.628 0.628v0h1.402c0.346-0 0.627-0.281 0.627-0.627v-0zM24.765 6.207c0.173-0 0.33-0.070 0.444-0.184l0.991-0.991c0.11-0.113 0.178-0.267 0.178-0.438 0-0.347-0.281-0.628-0.628-0.628-0.17 0-0.325 0.068-0.438 0.178l0-0-0.991 0.99c-0.114 0.114-0.184 0.271-0.184 0.445 0 0.347 0.281 0.628 0.627 0.629h0zM5.673 5.134l-0.991-0.99c-0.113-0.11-0.268-0.178-0.438-0.178-0.347 0-0.628 0.281-0.628 0.628 0 0.17 0.068 0.325 0.178 0.438l-0-0 0.991 0.991c0.112 0.106 0.264 0.172 0.432 0.172 0.347 0 0.628-0.281 0.628-0.628 0-0.168-0.066-0.32-0.173-0.433l0 0zM26.611 21.978c-0.114-0.114-0.271-0.184-0.444-0.184-0.347 0-0.628 0.281-0.628 0.628 0 0.174 0.070 0.331 0.184 0.445l0.991 0.99c0.114 0.114 0.27 0.184 0.444 0.184s0.33-0.070 0.444-0.184v0c0.114-0.113 0.184-0.27 0.184-0.444s-0.070-0.33-0.184-0.444v0zM3.384 21.978l-0.991 0.991c-0.114 0.113-0.184 0.27-0.184 0.444s0.070 0.33 0.184 0.444v0c0.114 0.114 0.271 0.184 0.444 0.184s0.33-0.070 0.444-0.184v0l0.991-0.99c0.114-0.114 0.184-0.271 0.184-0.445 0-0.347-0.281-0.629-0.629-0.629-0.174 0-0.331 0.070-0.444 0.184v0zM19.762 23.866c3.325-1.666 5.568-5.048 5.568-8.953 0-5.513-4.469-9.983-9.983-9.983s-9.983 4.469-9.983 9.983c0 4.055 2.418 7.546 5.891 9.108l0.063 0.025v4.518c0 0.459 0.373 0.831 0.832 0.831 0 0 0 0 0 0h6.397c0.459 0 0.831-0.372 0.832-0.831v-4.514zM10.129 18.345c-0.518 0-0.939-0.42-0.939-0.939s0.42-0.939 0.939-0.939c0.518 0 0.939 0.42 0.939 0.939v0c-0.001 0.518-0.421 0.938-0.939 0.939h-0zM15.347 24.896v0c0.002 0 0.005 0 0.008 0 0.986 0 1.938-0.143 2.837-0.41l-0.070 0.018v1.425h-5.549v-1.425c0.828 0.249 1.78 0.392 2.766 0.392 0.003 0 0.006 0 0.008 0h-0zM15.347 16.564c-1.028-0-1.861-0.834-1.861-1.862s0.833-1.862 1.862-1.862 1.862 0.833 1.862 1.862c0 0 0 0.001 0 0.001v-0c-0.002 1.028-0.835 1.86-1.863 1.861h-0zM19.826 17.406c0-0 0-0 0-0 0-0.518 0.42-0.939 0.939-0.939s0.939 0.42 0.939 0.939c0 0.518-0.42 0.939-0.939 0.939v0c-0.519-0-0.939-0.42-0.94-0.938v-0zM12.573 28.14v-0.955h5.549v0.955h-5.549zM19.943 22.33v-2.068l0.232-0.742c0.175 0.051 0.377 0.080 0.585 0.080 0.002 0 0.003 0 0.005 0h-0c0.001 0 0.002 0 0.002 0 1.213 0 2.197-0.984 2.197-2.197s-0.984-2.197-2.197-2.197c-1.213 0-2.197 0.984-2.197 2.197 0 0.537 0.193 1.030 0.513 1.411l-0.003-0.003-0.364 1.168c-0.018 0.056-0.029 0.121-0.029 0.188 0 0 0 0 0 0v0 2.81c-0.795 0.339-1.717 0.568-2.683 0.64l-0.029 0.002v-5.861c1.431-0.302 2.49-1.554 2.49-3.054 0-1.722-1.396-3.118-3.118-3.118s-3.118 1.396-3.118 3.118c0 1.5 1.059 2.752 2.47 3.050l0.020 0.004v5.861c-0.921-0.067-1.775-0.268-2.571-0.584l0.059 0.020v-2.889c-0-0.067-0.011-0.132-0.030-0.192l0.001 0.005-0.364-1.168c0.313-0.375 0.503-0.863 0.503-1.395 0-1.206-0.978-2.184-2.184-2.184s-2.184 0.978-2.184 2.184c0 1.206 0.978 2.184 2.184 2.184 0.209 0 0.411-0.029 0.603-0.084l-0.015 0.004 0.232 0.742v2.189c-2.611-1.541-4.335-4.341-4.335-7.542 0-4.821 3.908-8.729 8.729-8.729s8.729 3.908 8.729 8.729c0 3.12-1.637 5.857-4.098 7.401l-0.036 0.021zM18.154 8.334c-0.8-0.479-1.765-0.762-2.797-0.762-1.114 0-2.151 0.331-3.018 0.899l0.021-0.013c-0.174 0.113-0.288 0.307-0.288 0.528 0 0.347 0.281 0.628 0.628 0.628 0 0 0.001 0 0.001 0h-0c0.001 0 0.002 0 0.004 0 0.125 0 0.241-0.037 0.338-0.102l-0.002 0.001c0.654-0.429 1.456-0.684 2.317-0.684 0.798 0 1.544 0.219 2.183 0.6l-0.020-0.011c0.087 0.049 0.192 0.078 0.303 0.078 0.347 0 0.628-0.281 0.628-0.628 0-0.225-0.118-0.422-0.296-0.533l-0.003-0.002zM20.466 10.107c-0.089-0.246-0.32-0.419-0.592-0.419-0.347 0-0.628 0.281-0.628 0.628 0 0.075 0.013 0.147 0.037 0.213l-0.001-0.004 0.005 0.013c0.088 0.246 0.32 0.419 0.591 0.419 0 0 0 0 0.001 0h-0c0.001 0 0.002 0 0.003 0 0.074 0 0.145-0.013 0.21-0.038l-0.004 0.001c0.246-0.089 0.418-0.32 0.418-0.591 0-0.075-0.013-0.147-0.037-0.213l0.001 0.004zM19.339 31.147c-0.089-0.246-0.32-0.419-0.592-0.419-0.347 0-0.628 0.281-0.628 0.628 0 0.075 0.013 0.147 0.037 0.213l-0.001-0.004 0.005 0.015c0.089 0.246 0.32 0.419 0.592 0.419h0c0.075-0.001 0.147-0.014 0.214-0.038l-0.005 0.001c0.246-0.089 0.419-0.321 0.419-0.593 0-0.075-0.013-0.147-0.037-0.214l0.001 0.004zM16.16 30.744h-4.216c-0.347 0-0.628 0.281-0.628 0.628s0.281 0.628 0.628 0.628h4.215c0.347 0 0.628-0.281 0.628-0.628s-0.281-0.628-0.628-0.628v0z"></path>
</symbol>
<symbol id="icon-Shape-4" viewBox="0 0 42 32">
<path fill="#fff" style="fill: var(--color1, #fff)" d="M9.729 25.963c-0.284-0.203-0.466-0.531-0.466-0.901 0-0.61 0.494-1.104 1.104-1.104s1.104 0.494 1.104 1.104c0 0.241-0.077 0.464-0.208 0.645l0.002-0.003c-0.204 0.281-0.531 0.461-0.9 0.461-0.239 0-0.46-0.075-0.641-0.204l0.003 0.002zM29.75 8.993c0-0.002 0-0.005 0-0.007 0-1.296-1.050-2.346-2.346-2.346-0.974 0-1.809 0.593-2.164 1.438l-0.006 0.015c-1.226-0.908-2.768-1.454-4.437-1.454-0.003 0-0.007 0-0.010 0h0.001c-0.005 0-0.012-0-0.018-0-4.186 0-7.58 3.394-7.58 7.58s3.394 7.58 7.58 7.58c4.186 0 7.58-3.394 7.58-7.58 0-1.047-0.212-2.044-0.596-2.95l0.019 0.050c1.128-0.188 1.978-1.157 1.978-2.324 0-0.001 0-0.001 0-0.002v0zM20.787 20.311c-0.005 0-0.011 0-0.018 0-3.363 0-6.090-2.727-6.090-6.090s2.727-6.090 6.090-6.090c3.363 0 6.090 2.727 6.090 6.090v0c0 0.001 0 0.002 0 0.003 0 3.357-2.717 6.079-6.072 6.087h-0.001zM27.404 9.854c-0.001 0-0.002 0-0.003 0-0.476 0-0.862-0.386-0.862-0.862s0.386-0.862 0.862-0.862c0.476 0 0.862 0.386 0.862 0.862v0c0 0 0 0.001 0 0.001 0 0.475-0.384 0.86-0.859 0.861h-0zM40.232 0.003h-5.982c-0.413 0-0.747 0.334-0.747 0.747s0.334 0.747 0.747 0.747h5.838v1.925h-38.599v-1.925h29.289c0.413 0 0.747-0.334 0.747-0.747s-0.334-0.747-0.747-0.747h-29.432c-0.744 0.003-1.345 0.607-1.345 1.351v2.212c0.001 0.743 0.602 1.346 1.345 1.348h5.669v1.958c0 0.411 0.333 0.745 0.745 0.745s0.745-0.333 0.745-0.745v0-1.958h24.569v6.292c0 6.785-5.5 12.285-12.285 12.285s-12.285-5.5-12.285-12.285v-0.852c0-0.411-0.333-0.745-0.745-0.745s-0.745 0.333-0.745 0.745v0 0.852c0 0.002 0 0.003 0 0.005 0 7.614 6.162 13.789 13.771 13.81h0.002c7.61-0.011 13.775-6.183 13.775-13.794 0-0.007 0-0.015-0-0.022v0.001-6.292h5.669c0.743-0.002 1.345-0.605 1.346-1.348v-2.212c-0-0.744-0.602-1.347-1.345-1.351h-0zM20.787 10.258c-0.003 0-0.007 0-0.010 0-2.189 0-3.963 1.774-3.963 3.963s1.774 3.963 3.963 3.963c2.189 0 3.963-1.774 3.963-3.963v0c0-0 0-0 0-0 0-2.185-1.769-3.958-3.953-3.963h-0.001zM20.787 16.69c-0.002 0-0.004 0-0.006 0-1.364 0-2.471-1.106-2.471-2.471s1.106-2.471 2.471-2.471c1.364 0 2.471 1.106 2.471 2.471 0 0 0 0.001 0 0.001v-0c0 0 0 0 0 0 0 1.362-1.103 2.466-2.464 2.469h-0zM3.787 27.195c1.093 2.743 3.671 4.672 6.715 4.802l0.016 0.001c0.009 0 0.020 0.001 0.030 0.001 0.412 0 0.746-0.334 0.746-0.746 0-0.402-0.317-0.729-0.715-0.746l-0.002-0c-2.457-0.104-4.527-1.653-5.39-3.814l-0.014-0.041c-0.111-0.28-0.379-0.475-0.693-0.475-0.098 0-0.191 0.019-0.277 0.053l0.005-0.002c-0.279 0.114-0.471 0.383-0.471 0.697 0 0.097 0.019 0.191 0.052 0.276l-0.002-0.005zM6.357 25.799c0.491 1.923 2.208 3.323 4.251 3.323 0.135 0 0.268-0.006 0.399-0.018l-0.017 0.001c0.377-0.041 0.668-0.358 0.668-0.742 0-0.412-0.334-0.747-0.747-0.747-0.021 0-0.042 0.001-0.063 0.003l0.003-0c-0.075 0.007-0.163 0.011-0.251 0.011-1.346 0-2.477-0.921-2.796-2.168l-0.004-0.020c-0.042-0.178-0.146-0.327-0.287-0.427l-0.002-0.002c-0.12-0.087-0.27-0.14-0.433-0.14-0.063 0-0.124 0.008-0.182 0.023l0.005-0.001c-0.328 0.084-0.566 0.377-0.566 0.726 0 0.064 0.008 0.125 0.023 0.184l-0.001-0.005zM29.775 25.703c-0.128-0.178-0.205-0.4-0.205-0.641 0-0.61 0.494-1.104 1.104-1.104s1.104 0.494 1.104 1.104c0 0.37-0.182 0.698-0.462 0.898l-0.003 0.002c-0.177 0.126-0.399 0.201-0.637 0.201-0.369 0-0.696-0.18-0.898-0.458l-0.002-0.003zM37.254 27.195c0.033-0.081 0.052-0.174 0.052-0.272 0-0.411-0.333-0.744-0.744-0.744-0.313 0-0.581 0.193-0.691 0.467l-0.002 0.005c-0.877 2.202-2.946 3.751-5.39 3.855l-0.012 0c-0.4 0.016-0.717 0.344-0.717 0.746 0 0.412 0.334 0.746 0.746 0.746 0.010 0 0.020-0 0.030-0.001l-0.001 0c3.059-0.13 5.637-2.059 6.712-4.752l0.018-0.051zM34.139 24.895c-0.052-0.013-0.112-0.020-0.173-0.020-0.349 0-0.642 0.239-0.725 0.562l-0.001 0.005c-0.322 1.266-1.453 2.188-2.798 2.188-0.088 0-0.176-0.004-0.262-0.012l0.011 0.001c-0.021-0.002-0.046-0.003-0.071-0.003-0.412 0-0.747 0.334-0.747 0.747 0 0.388 0.295 0.706 0.673 0.743l0.003 0c0.114 0.011 0.247 0.017 0.381 0.017 2.045 0 3.762-1.399 4.248-3.292l0.007-0.030c0.014-0.054 0.022-0.115 0.022-0.179 0-0.349-0.239-0.643-0.563-0.725l-0.005-0.001z"></path>
</symbol>
<symbol id="icon-facebook2" viewBox="0 0 32 32">
<path d="M29 0h-26c-1.65 0-3 1.35-3 3v26c0 1.65 1.35 3 3 3h13v-14h-4v-4h4v-2c0-3.306 2.694-6 6-6h4v4h-4c-1.1 0-2 0.9-2 2v2h6l-1 4h-5v14h9c1.65 0 3-1.35 3-3v-26c0-1.65-1.35-3-3-3z"></path>
</symbol>
<symbol id="icon-instagram" viewBox="0 0 32 32">
<path d="M16 2.881c4.275 0 4.781 0.019 6.462 0.094 1.563 0.069 2.406 0.331 2.969 0.55 0.744 0.288 1.281 0.638 1.837 1.194 0.563 0.563 0.906 1.094 1.2 1.838 0.219 0.563 0.481 1.412 0.55 2.969 0.075 1.688 0.094 2.194 0.094 6.463s-0.019 4.781-0.094 6.463c-0.069 1.563-0.331 2.406-0.55 2.969-0.288 0.744-0.637 1.281-1.194 1.837-0.563 0.563-1.094 0.906-1.837 1.2-0.563 0.219-1.413 0.481-2.969 0.55-1.688 0.075-2.194 0.094-6.463 0.094s-4.781-0.019-6.463-0.094c-1.563-0.069-2.406-0.331-2.969-0.55-0.744-0.288-1.281-0.637-1.838-1.194-0.563-0.563-0.906-1.094-1.2-1.837-0.219-0.563-0.481-1.413-0.55-2.969-0.075-1.688-0.094-2.194-0.094-6.463s0.019-4.781 0.094-6.463c0.069-1.563 0.331-2.406 0.55-2.969 0.288-0.744 0.638-1.281 1.194-1.838 0.563-0.563 1.094-0.906 1.838-1.2 0.563-0.219 1.412-0.481 2.969-0.55 1.681-0.075 2.188-0.094 6.463-0.094zM16 0c-4.344 0-4.887 0.019-6.594 0.094-1.7 0.075-2.869 0.35-3.881 0.744-1.056 0.412-1.95 0.956-2.837 1.85-0.894 0.888-1.438 1.781-1.85 2.831-0.394 1.019-0.669 2.181-0.744 3.881-0.075 1.713-0.094 2.256-0.094 6.6s0.019 4.887 0.094 6.594c0.075 1.7 0.35 2.869 0.744 3.881 0.413 1.056 0.956 1.95 1.85 2.837 0.887 0.887 1.781 1.438 2.831 1.844 1.019 0.394 2.181 0.669 3.881 0.744 1.706 0.075 2.25 0.094 6.594 0.094s4.888-0.019 6.594-0.094c1.7-0.075 2.869-0.35 3.881-0.744 1.050-0.406 1.944-0.956 2.831-1.844s1.438-1.781 1.844-2.831c0.394-1.019 0.669-2.181 0.744-3.881 0.075-1.706 0.094-2.25 0.094-6.594s-0.019-4.887-0.094-6.594c-0.075-1.7-0.35-2.869-0.744-3.881-0.394-1.063-0.938-1.956-1.831-2.844-0.887-0.887-1.781-1.438-2.831-1.844-1.019-0.394-2.181-0.669-3.881-0.744-1.712-0.081-2.256-0.1-6.6-0.1v0z"></path>
<path d="M16 7.781c-4.537 0-8.219 3.681-8.219 8.219s3.681 8.219 8.219 8.219 8.219-3.681 8.219-8.219c0-4.537-3.681-8.219-8.219-8.219zM16 21.331c-2.944 0-5.331-2.387-5.331-5.331s2.387-5.331 5.331-5.331c2.944 0 5.331 2.387 5.331 5.331s-2.387 5.331-5.331 5.331z"></path>
<path d="M26.462 7.456c0 1.060-0.859 1.919-1.919 1.919s-1.919-0.859-1.919-1.919c0-1.060 0.859-1.919 1.919-1.919s1.919 0.859 1.919 1.919z"></path>
</symbol>
<symbol id="icon-whatsapp" viewBox="0 0 32 32">
<path d="M27.281 4.65c-2.994-3-6.975-4.65-11.219-4.65-8.738 0-15.85 7.112-15.85 15.856 0 2.794 0.731 5.525 2.119 7.925l-2.25 8.219 8.406-2.206c2.319 1.262 4.925 1.931 7.575 1.931h0.006c0 0 0 0 0 0 8.738 0 15.856-7.113 15.856-15.856 0-4.238-1.65-8.219-4.644-11.219zM16.069 29.050v0c-2.369 0-4.688-0.637-6.713-1.837l-0.481-0.288-4.987 1.306 1.331-4.863-0.313-0.5c-1.325-2.094-2.019-4.519-2.019-7.012 0-7.269 5.912-13.181 13.188-13.181 3.519 0 6.831 1.375 9.319 3.862 2.488 2.494 3.856 5.8 3.856 9.325-0.006 7.275-5.919 13.188-13.181 13.188zM23.294 19.175c-0.394-0.2-2.344-1.156-2.706-1.288s-0.625-0.2-0.894 0.2c-0.262 0.394-1.025 1.288-1.256 1.556-0.231 0.262-0.462 0.3-0.856 0.1s-1.675-0.619-3.188-1.969c-1.175-1.050-1.975-2.35-2.206-2.744s-0.025-0.613 0.175-0.806c0.181-0.175 0.394-0.463 0.594-0.694s0.262-0.394 0.394-0.662c0.131-0.262 0.069-0.494-0.031-0.694s-0.894-2.15-1.219-2.944c-0.319-0.775-0.65-0.669-0.894-0.681-0.231-0.012-0.494-0.012-0.756-0.012s-0.694 0.1-1.056 0.494c-0.363 0.394-1.387 1.356-1.387 3.306s1.419 3.831 1.619 4.1c0.2 0.262 2.794 4.269 6.769 5.981 0.944 0.406 1.681 0.65 2.256 0.837 0.95 0.3 1.813 0.256 2.494 0.156 0.762-0.113 2.344-0.956 2.675-1.881s0.331-1.719 0.231-1.881c-0.094-0.175-0.356-0.275-0.756-0.475z"></path>
</symbol>
<symbol id="icon-twitter" viewBox="0 0 32 32">
<path d="M32 7.075c-1.175 0.525-2.444 0.875-3.769 1.031 1.356-0.813 2.394-2.1 2.887-3.631-1.269 0.75-2.675 1.3-4.169 1.594-1.2-1.275-2.906-2.069-4.794-2.069-3.625 0-6.563 2.938-6.563 6.563 0 0.512 0.056 1.012 0.169 1.494-5.456-0.275-10.294-2.888-13.531-6.862-0.563 0.969-0.887 2.1-0.887 3.3 0 2.275 1.156 4.287 2.919 5.463-1.075-0.031-2.087-0.331-2.975-0.819 0 0.025 0 0.056 0 0.081 0 3.181 2.263 5.838 5.269 6.437-0.55 0.15-1.131 0.231-1.731 0.231-0.425 0-0.831-0.044-1.237-0.119 0.838 2.606 3.263 4.506 6.131 4.563-2.25 1.762-5.075 2.813-8.156 2.813-0.531 0-1.050-0.031-1.569-0.094 2.913 1.869 6.362 2.95 10.069 2.95 12.075 0 18.681-10.006 18.681-18.681 0-0.287-0.006-0.569-0.019-0.85 1.281-0.919 2.394-2.075 3.275-3.394z"></path>
</symbol>
</defs>
</svg>
